<?xml version="1.0" encoding="utf-8"?>
<!-- Svg Vector Icons : http://www.onlinewebfonts.com/icon -->
<!DOCTYPE svg PUBLIC "-//W3C//DTD SVG 1.1//EN" "http://www.w3.org/Graphics/SVG/1.1/DTD/svg11.dtd">
<svg version="1.1" xmlns="http://www.w3.org/2000/svg" xmlns:xlink="http://www.w3.org/1999/xlink" x="0px" y="0px" viewBox="0 0 256 256" enable-background="new 0 0 256 256" xml:space="preserve">
<metadata> Svg Vector Icons : http://www.onlinewebfonts.com/icon </metadata>
<g><g><g><g><g id="circle_12_"><g><path fill="#fff" d="M128,10C62.8,10,10,62.8,10,128c0,65.2,52.8,118,118,118c65.2,0,118-52.8,118-118C246,62.8,193.2,10,128,10z M128,238.6c-61.1,0-110.6-49.5-110.6-110.6C17.4,66.9,66.9,17.4,128,17.4c61.1,0,110.6,49.5,110.6,110.6C238.6,189.1,189.1,238.6,128,238.6z"/></g></g><g id="Printer_1_"><g><path fill="#fff" d="M168.6,113.3c-2,0-3.7,1.7-3.7,3.7c0,2,1.7,3.7,3.7,3.7c2,0,3.7-1.6,3.7-3.7C172.3,114.9,170.6,113.3,168.6,113.3z M172.3,98.5h-18.4v-3.7c0-8.1-6.6-14.8-14.8-14.8h-22.1c-8.1,0-14.8,6.6-14.8,14.8v3.7H83.7c-8.1,0-14.8,6.6-14.8,14.8v44.3c0,8.1,6.6,14.8,14.8,14.8h88.5c8.1,0,14.8-6.6,14.8-14.8v-44.3C187,105.1,180.4,98.5,172.3,98.5z M109.6,94.8c0-4.1,3.3-7.4,7.4-7.4h22.1c4.1,0,7.4,3.3,7.4,7.4v3.7h-36.9V94.8z M179.6,157.5c0,4.1-3.3,7.4-7.4,7.4H83.8c-4.1,0-7.4-3.3-7.4-7.4v-44.2c0-4.1,3.3-7.4,7.4-7.4h88.5c4.1,0,7.4,3.3,7.4,7.4V157.5L179.6,157.5z M128,113.3c-12.2,0-22.1,9.9-22.1,22.1c0,12.2,9.9,22.1,22.1,22.1c12.2,0,22.1-9.9,22.1-22.1C150.1,123.2,140.2,113.3,128,113.3z M128,150.1c-8.1,0-14.8-6.6-14.8-14.8c0-8.2,6.6-14.8,14.8-14.8c8.2,0,14.8,6.6,14.8,14.8C142.8,143.5,136.1,150.1,128,150.1z"/></g></g></g></g><g></g><g></g><g></g><g></g><g></g><g></g><g></g><g></g><g></g><g></g><g></g><g></g><g></g><g></g><g></g></g></g>
</svg>